<?xml version="1.0" encoding="UTF-8"?>
<svg width="128px" height="128px" version="1.1" viewBox="0 0 128 128" xmlns="http://www.w3.org/2000/svg" xmlns:xlink="http://www.w3.org/1999/xlink">
 <defs>
  <filter id="a" x="0" y="0" width="1.0291" height="1.0333">
   <feColorMatrix color-interpolation-filters="sRGB" values="0 0 0 0 1 0 0 0 0 1 0 0 0 0 1 0 0 0 1 0"/>
  </filter>
  <linearGradient id="b" x1="18" x2="110" y1="112" y2="112" gradientUnits="userSpaceOnUse">
   <stop stop-color="#a27407" offset="0"/>
   <stop stop-color="#f6be3a" offset=".043478"/>
   <stop stop-color="#e4a308" offset=".086956"/>
   <stop stop-color="#c08a08" offset=".91304"/>
   <stop stop-color="#f6be3a" offset=".95652"/>
   <stop stop-color="#a27407" offset="1"/>
  </linearGradient>
  <linearGradient id="c" gradientUnits="userSpaceOnUse">
   <stop stop-color="#77767b" offset="0"/>
   <stop stop-color="#dcdbdb" offset=".7"/>
   <stop stop-color="#9a9996" offset="1"/>
  </linearGradient>
  <linearGradient id="d" x1="32" x2="42" y1="208" y2="208" gradientTransform="matrix(-1 0 0 1 74 -172)" xlink:href="#c"/>
  <linearGradient id="e" x1="86" x2="96" y1="36" y2="36" xlink:href="#c"/>
  <radialGradient id="f" cx="64" cy="32" r="32" gradientUnits="userSpaceOnUse">
   <stop stop-color="#9a9996" offset="0"/>
   <stop stop-color="#77767b" offset=".6875"/>
   <stop stop-color="#dcdbdb" offset=".90625"/>
   <stop stop-color="#9a9996" offset="1"/>
  </radialGradient>
  <linearGradient id="g" x1="64" x2="64" y1="110" y2="36" gradientUnits="userSpaceOnUse">
   <stop stop-color="#f5c211" offset="0"/>
   <stop stop-color="#f8d251" offset=".75676"/>
   <stop stop-color="#f5c211" offset="1"/>
  </linearGradient>
  <clipPath id="h">
   <path d="m51 46h26v50h-26z"/>
  </clipPath>
  <clipPath id="i">
   <path d="m102.31 72.691c0 15.633-12.676 28.309-28.309 28.309s-28.309-12.676-28.309-28.309c0-15.633 12.676-28.309 28.309-28.309s28.309 12.676 28.309 28.309z"/>
  </clipPath>
  <clipPath id="j">
   <path d="m45 44h58v57h-58z"/>
  </clipPath>
  <clipPath id="k">
   <path d="m102.31 72.691c0 15.633-12.676 28.309-28.309 28.309s-28.309-12.676-28.309-28.309c0-15.633 12.676-28.309 28.309-28.309s28.309 12.676 28.309 28.309z"/>
  </clipPath>
  <linearGradient id="l" x1="99" x2="41" y1="98" y2="44" gradientUnits="userSpaceOnUse">
   <stop stop-color="#fff" stop-opacity="0" offset="0"/>
   <stop stop-color="#fff" stop-opacity=".33726" offset=".63939"/>
   <stop stop-color="#fff" stop-opacity=".16863" offset=".75"/>
   <stop stop-color="#fff" stop-opacity="0" offset="1"/>
  </linearGradient>
  <mask id="m">
   <g filter="url(#a)">
    <rect x="-12.8" y="-12.8" width="153.6" height="153.6" fill-opacity=".154"/>
   </g>
  </mask>
  <mask id="n">
   <g filter="url(#a)">
    <rect x="-12.8" y="-12.8" width="153.6" height="153.6" fill-opacity=".154"/>
   </g>
  </mask>
  <clipPath id="u">
   <rect width="192" height="152"/>
  </clipPath>
  <g id="v" clip-path="url(#u)">
   <path transform="matrix(-1 0 0 1 140 -138)" d="m11.891 268.55 15.457-15.457" fill="none" stroke="#fff" stroke-linecap="round" stroke-width="1.6378"/>
  </g>
  <clipPath id="C">
   <rect width="192" height="152"/>
  </clipPath>
  <g id="D" clip-path="url(#C)">
   <path transform="matrix(-1 0 0 1 -489.96 -35.993)" d="m-618.96 166.99 16-16" fill="none" stroke="#fff" stroke-linecap="round" stroke-width="2"/>
  </g>
  <mask id="H">
   <g filter="url(#a)">
    <rect x="-28.16" y="-28.16" width="184.32" height="184.32" fill-opacity=".8"/>
   </g>
  </mask>
  <linearGradient id="I" x1="300" x2="428" y1="235" y2="235" gradientTransform="matrix(0 .37 -.98462 0 295.39 -30.36)" gradientUnits="userSpaceOnUse">
   <stop stop-color="#f9f06b" offset="0"/>
   <stop stop-color="#f5c211" offset="1"/>
  </linearGradient>
  <clipPath id="J">
   <rect width="128" height="128"/>
  </clipPath>
  <clipPath id="K">
   <rect width="128" height="128"/>
  </clipPath>
  <mask id="mask82" maskUnits="userSpaceOnUse">
   <rect x="18" y="36" width="92" height="84" rx="8" ry="8" fill="#fff" stroke-linecap="round" stroke-linejoin="round"/>
  </mask>
 </defs>
 <path d="m26 40h76c4.418 0 8 3.582 8 8v64c0 4.418-3.582 8-8 8h-76c-4.418 0-8-3.582-8-8v-64c0-4.418 3.582-8 8-8z" fill="url(#b)"/>
 <path d="m42 40h-10v-8h10z" fill="url(#d)"/>
 <path d="m96 32h-10v8h10z" fill="url(#e)"/>
 <path d="m64 0c-17.641 0-32 14.359-32 32v1h10v-1c0-12.273 9.7266-22 22-22s22 9.7266 22 22v1h10v-1c0-17.641-14.359-32-32-32z" fill="url(#f)"/>
 <path d="m26 36h76c4.418 0 8 3.582 8 8v58c0 4.418-3.582 8-8 8h-76c-4.418 0-8-3.582-8-8v-58c0-4.418 3.582-8 8-8z" fill="url(#g)"/>
 <g clip-path="url(#h)">
  <g clip-path="url(#i)">
   <path d="m64 46c-6.9023 0-12.5 5.5977-12.5 12.5 0.011719 4.6055 2.5586 8.832 6.625 11l-6.625 26.5h25l-6.625-26.5c4.0664-2.168 6.6133-6.3945 6.625-11 0-6.9023-5.5977-12.5-12.5-12.5z" fill="#a37608"/>
  </g>
 </g>
 <g clip-path="url(#j)">
  <g clip-path="url(#k)">
   <path d="m36 38h68v68h-68z" fill="url(#l)"/>
  </g>
 </g>
 <path d="m18 100v2c0 4.4336 3.5664 8 8 8h76c4.4336 0 8-3.5664 8-8v-2c0 4.4336-3.5664 8-8 8h-76c-4.4336 0-8-3.5664-8-8z" fill="#ffe66e" fill-opacity=".25098"/>
 <g mask="url(#mask82)">
  <g clip-path="url(#K)">
   <g mask="url(#H)">
    <g clip-path="url(#J)">
     <path d="m128 80.641v47.359h-128v-47.359z" fill="url(#I)"/>
     <path d="m13.309 80.641 47.355 47.359h21.215l-47.359-47.359zm42.422 0 47.363 47.359h21.215l-47.363-47.359zm42.43 0 29.84 29.84v-21.211l-8.6289-8.6289zm-98.16 7.9062v21.215l18.238 18.238h21.215z"/>
    </g>
   </g>
  </g>
 </g>
 <g mask="url(#m)">
  <use transform="translate(-8 -16)" xlink:href="#v"/>
 </g>
 <g fill="none">
  <path transform="matrix(-1 0 0 1 132 -154)" d="m36 250-8 8" stroke="#241f31" stroke-width="6"/>
  <path transform="matrix(-1 0 0 1 132 -154)" d="m36 248-8 8" stroke="#3d3846" stroke-width="6"/>
  <path transform="matrix(-1 0 0 1 132 -154)" d="m28 258-14 14" stroke="#5e5c64" stroke-linecap="round" stroke-width="12"/>
  <path transform="matrix(-1 0 0 1 132 -154)" d="m28 256-14 14" stroke="#77767b" stroke-linecap="round" stroke-width="12"/>
  <path transform="matrix(-1 0 0 1 -497.96 -51.993)" d="m-541.84 125.99c0 16.633-13.484 30.117-30.117 30.117-16.633 0-30.117-13.484-30.117-30.117 0-16.633 13.484-30.117 30.117-30.117 16.633 0 30.117 13.484 30.117 30.117z" stroke="#241f31" stroke-linejoin="round" stroke-width="4"/>
 </g>
 <g mask="url(#n)">
  <use transform="translate(-8 -16)" xlink:href="#D"/>
 </g>
 <path transform="matrix(-1 0 0 1 -497.96 -51.993)" d="m-541.84 123.99c0 16.633-13.484 30.117-30.117 30.117-16.633 0-30.117-13.484-30.117-30.117 0-16.633 13.484-30.117 30.117-30.117 16.633 0 30.117 13.484 30.117 30.117z" fill="none" stroke="#5e5c64" stroke-linejoin="round" stroke-width="4"/>
</svg>
